PathFileType	4	(X/Y/Z)	D:\TRACE\v60_Jaco2_6-2-23\v60_baseline_2-platform.trc
DataRate	CameraRate	NumFrames	NumMarkers	Units	OrigDataRate	OrigDataStartFrame	OrigNumFrames
100.00	100.00	      67	5	mm	100.00	2739	      7303
Frame#	Time	Left_Front			Right_Front			Left_Aft			Right_Aft			Post			
		X1	Y1	Z1	X2	Y2	Z2	X3	Y3	Z3	X4	Y4	Z4	X5	Y5	Z5	

2739	27.380	-800.55878	9.05092	-638.76318	769.36853	10.13492	-644.40790	-708.41650	7.53318	496.10550	733.22424	6.77966	505.21820	-14.13937	1308.11792	-961.92542	
2740	27.390	-800.63110	8.99184	-638.69812	769.41760	10.14837	-644.39252	-708.42535	7.46437	496.17297	733.21082	6.80831	505.24161	-14.23006	1308.18311	-961.83337	
2741	27.400	-800.60681	8.88682	-638.70575	769.36011	10.10949	-644.40503	-708.46667	7.43588	496.19186	733.12244	6.73704	505.22104	-14.17520	1308.11841	-961.78162	
2742	27.410	-800.56000	8.83702	-638.81873	769.36041	10.11886	-644.37207	-708.40698	7.43302	496.20297	733.11224	6.71846	505.20322	-14.22640	1308.10864	-961.71503	
2743	27.420	-800.47473	8.79134	-638.88812	769.31287	10.10116	-644.37567	-708.35706	7.40234	496.14468	732.16382	5.86110	504.84445	-14.14272	1308.09143	-961.70966	
2744	27.430	-800.53052	8.97478	-638.78943	769.33618	10.08987	-644.39923	-708.39868	7.47632	496.15091	732.62109	6.30435	505.22168	-14.26734	1308.15491	-961.71381	
2745	27.440	-800.61212	8.99961	-638.71558	769.40460	10.13262	-644.36224	-708.42273	7.48516	496.12762	732.72308	6.38974	505.25940	-14.19098	1308.16931	-961.77679	
2746	27.450	-800.65515	8.89144	-638.72522	769.34351	10.15715	-644.40192	-708.37970	7.42550	496.09891	732.86371	6.55263	505.34891	-14.21217	1308.15833	-961.81482	
2747	27.460	-800.63080	8.86292	-638.73303	769.37506	10.11746	-644.37463	-708.32996	7.36375	496.05853	733.05383	6.72134	505.44037	-14.18086	1308.14478	-961.87164	
2748	27.470	-800.52319	8.79951	-638.85864	769.29755	10.12161	-644.40100	-708.31238	7.40835	496.05475	733.08472	6.77335	505.47101	-14.06552	1308.08765	-961.92603	
2749	27.480	-800.49078	9.04479	-638.84052	769.36548	10.24661	-644.45135	-708.34576	7.45942	496.02634	733.11206	6.79708	505.47012	-14.10523	1308.07385	-961.94519	
2750	27.490	-800.52539	9.15244	-638.71844	769.32190	10.26728	-644.45459	-708.44409	7.58985	496.13718	733.19257	6.82268	505.45963	-14.10611	1308.13684	-961.96210	
2751	27.500	-800.69421	8.79069	-638.72748	769.34857	10.18141	-644.39349	-708.42902	7.57418	496.17285	733.28436	6.82231	505.44406	-14.04961	1308.19177	-962.04437	
2752	27.510	-800.66498	8.59381	-638.82983	769.31287	10.06690	-644.35901	-708.43237	7.53272	496.16800	733.25525	6.89010	505.48010	-14.11361	1308.18494	-961.99554	
2753	27.520	-800.61334	8.60549	-638.84863	769.37439	10.09880	-644.36292	-708.44525	7.50306	496.13538	733.19037	6.78536	505.50021	-14.11354	1308.07764	-961.92896	
2754	27.530	-800.52234	8.73758	-638.85211	769.26752	10.22445	-644.43524	-708.39935	7.46237	496.12067	733.19385	6.76016	505.51971	-14.00953	1308.11182	-961.90118	
2755	27.540	-800.44116	8.95236	-638.85681	769.33557	10.22092	-644.39722	-708.39081	7.51501	496.14954	733.21594	6.81872	505.45444	-13.99522	1308.15930	-961.81500	
2756	27.550	-800.60889	8.98717	-638.62842	769.36499	10.22108	-644.41608	-708.37750	7.58997	496.20691	733.19360	6.78374	505.46713	-14.22791	1308.20044	-961.75232	
2757	27.560	-800.71954	8.82917	-638.67206	769.36548	10.20761	-644.41077	-708.34296	7.51270	496.13000	733.09143	6.73330	505.44281	-14.17898	1308.16833	-961.65356	
2758	27.570	-800.67908	8.60806	-638.83038	769.33386	10.22195	-644.36829	-708.34662	7.39535	496.06241	733.01874	6.71079	505.44476	-14.02360	1308.03430	-961.58759	
2759	27.580	-800.56097	8.68033	-638.88678	769.31183	10.18457	-644.37903	-708.32513	7.38869	496.05615	732.99744	6.62826	505.47681	-14.16822	1308.08716	-961.68689	
2760	27.590	-800.49280	8.88734	-638.83893	769.35822	10.13774	-644.38477	-708.89679	8.34139	495.47745	732.97369	6.66007	505.52118	-14.12120	1308.11975	-961.84247	
2761	27.600	-800.56128	8.90936	-638.68982	769.30609	10.20107	-644.40076	-708.89850	8.42226	495.59802	732.98828	6.64055	505.51645	-14.07079	1308.13074	-961.92859	
2762	27.610	-800.68396	8.88081	-638.62482	769.36493	10.28365	-644.44684	-708.26801	7.45955	496.07257	733.03802	6.66660	505.55954	-14.12647	1308.20593	-962.04456	
2763	27.620	-800.67126	8.77939	-638.73969	769.39526	10.24141	-644.39636	-708.37512	7.52190	496.12036	733.00153	6.68357	505.58237	-14.10672	1308.22168	-962.12585	
2764	27.630	-800.60028	8.76766	-638.84180	769.34961	10.17908	-644.42828	-708.34583	7.47376	496.09146	732.68463	6.38921	505.40555	-14.07199	1308.16602	-962.09528	
2765	27.640	-800.51569	8.78211	-638.85846	769.30182	10.19808	-644.42059	-708.27197	7.37557	496.04340	732.63837	6.33136	505.42905	-14.13369	1308.08423	-961.99475	
2766	27.650	-800.56110	8.82853	-638.79004	769.33893	10.15285	-644.41516	-708.28986	7.41758	496.06357	732.63196	6.34708	505.46121	-14.14691	1308.12329	-961.89404	
2767	27.660	-800.61224	8.89963	-638.70996	769.36530	10.21834	-644.41699	-708.32288	7.53439	496.08807	732.64075	6.34976	505.44244	-14.11417	1308.14636	-961.71716	
2768	27.670	-800.68231	8.83966	-638.66547	769.30255	10.23752	-644.40070	-708.33459	7.48127	496.08893	732.63696	6.37294	505.47034	-14.19180	1308.20056	-961.68445	
2769	27.680	-800.66681	8.78276	-638.74432	769.29260	10.20456	-644.44830	-708.42834	7.51228	496.10889	732.60358	6.35087	505.45959	-14.12636	1308.11707	-961.57343	
2770	27.690	-800.56598	8.69958	-638.83722	769.38318	10.16798	-644.37988	-708.36688	7.43893	496.05646	732.63751	6.36074	505.52374	-14.23092	1308.15771	-961.63171	
2771	27.700	-800.51453	8.73915	-638.86200	769.32056	10.17779	-644.37195	-708.37225	7.51449	496.14566	732.50977	6.29775	505.62030	-14.21190	1308.11584	-961.72211	
2772	27.710	-800.56256	8.83545	-638.81854	769.38013	10.16143	-644.42334	-708.80511	8.20328	495.66000	732.53693	6.30778	505.65109	-14.11690	1308.15527	-961.84247	
2773	27.720	-800.63391	8.88015	-638.68500	769.31317	10.27398	-644.42554	-708.86731	8.22020	495.66605	733.18402	6.86527	505.81152	-14.18826	1308.22656	-962.01038	
2774	27.730	-800.66364	8.85868	-638.69000	769.30634	10.25993	-644.41040	-708.87225	8.19095	495.67429	733.04810	6.71958	505.99890	-14.12903	1308.25806	-962.09576	
2775	27.740	-800.62518	8.78849	-638.75574	769.30945	10.23746	-644.41809	-708.86731	8.13941	495.67392	732.90680	6.54299	506.02621	-14.10473	1308.16406	-962.02563	
2776	27.750	-800.54364	8.71843	-638.85669	769.33765	10.12521	-644.42029	-708.82385	8.10199	495.63629	732.67310	6.28674	505.84738	-14.08896	1308.11682	-962.01794	
2777	27.760	-800.56561	8.82035	-638.83014	769.29199	10.14862	-644.34528	-708.83185	8.09889	495.66675	732.69385	6.32232	505.87491	-14.06845	1308.09668	-961.89471	
2778	27.770	-800.63055	8.87083	-638.76776	769.38770	10.13288	-644.35724	-708.80872	8.14895	495.67249	732.54620	6.24167	505.82635	-14.16020	1308.12463	-961.91193	
2779	27.780	-800.68671	8.87061	-638.71161	769.36975	10.22163	-644.39154	-708.83307	8.13609	495.69458	731.72461	5.86461	505.19827	-14.21377	1308.20520	-961.77075	
2780	27.790	-800.66956	8.85720	-638.70007	769.32330	10.24820	-644.44763	-708.83148	8.06343	495.73203	732.31952	6.18898	505.72531	-14.10219	1308.15503	-961.79346	
2781	27.800	-800.56110	8.77819	-638.83905	769.32452	10.20677	-644.46667	-708.82855	8.12673	495.65567	733.25708	6.77521	505.22900	-14.04817	1308.10120	-961.68323	
2782	27.810	-800.51941	8.77259	-638.84894	769.34528	10.16406	-644.41156	-708.81488	8.13093	495.68130	733.14032	6.70344	505.21698	-14.16636	1308.16113	-961.73022	
2783	27.820	-800.55145	8.76872	-638.83673	769.34052	10.17676	-644.40247	-708.79022	8.14312	495.72061	733.17761	6.72832	505.22900	-14.13924	1308.14111	-961.80414	
2784	27.830	-800.64319	8.88337	-638.69916	769.35321	10.21384	-644.39624	-708.78638	8.14411	495.73209	733.17218	6.72398	505.25208	-14.14688	1308.20581	-961.88745	
2785	27.840	-800.70795	8.86377	-638.66272	769.31824	10.26811	-644.37189	-708.83820	8.07042	495.71140	733.10693	6.66849	505.20706	-14.12633	1308.18835	-961.92310	
2786	27.850	-800.59918	8.82371	-638.76453	769.27844	10.20330	-644.42542	-708.84015	8.15428	495.69376	733.10596	6.69512	505.23236	-14.12063	1308.16675	-961.89026	
2787	27.860	-800.49310	9.02045	-638.78876	769.27362	10.27058	-644.42389	-708.83539	8.16267	495.59204	732.18634	6.10591	505.76279	-14.06179	1308.07849	-961.86078	
2788	27.870	-800.47424	9.04818	-638.80420	769.31311	10.27765	-644.44739	-708.90625	8.29183	495.70154	732.48193	6.33749	505.67136	-14.18194	1308.08130	-961.83215	
2789	27.880	-800.56372	8.95127	-638.73914	769.31921	10.21542	-644.40851	-708.45367	7.62451	496.14243	732.60773	6.33984	505.43561	-14.15188	1308.12415	-961.95905	
2790	27.890	-800.65979	8.83684	-638.72565	769.41565	9.98110	-644.35242	-708.48004	7.57350	496.17325	733.03168	6.72630	505.61310	-14.19828	1308.18945	-962.04510	
2791	27.900	-800.65942	8.69662	-638.78418	769.31793	9.94361	-644.32556	-708.55286	7.52733	496.17526	732.80090	6.50287	505.39526	-14.22785	1308.16602	-962.03375	
2792	27.910	-800.60297	8.73123	-638.78827	769.35278	10.16837	-644.40198	-708.53967	7.56383	496.16470	732.67584	6.40089	505.50156	-14.03522	1308.16174	-961.99719	
2793	27.920	-800.47931	8.95737	-638.79187	769.32104	10.12937	-644.37195	-708.50354	7.50778	496.14014	732.57965	6.16782	505.03314	-14.11155	1308.19531	-961.90613	
2794	27.930	-800.51495	9.03758	-638.73035	769.29541	10.09880	-644.37488	-708.50842	7.66079	496.18179	733.14929	6.69789	505.24106	-14.29860	1308.24329	-961.81354	
2795	27.940	-800.59393	9.00680	-638.67682	769.40149	10.09567	-644.38824	-708.51465	7.71116	496.17462	733.19250	6.74214	505.20844	-14.26374	1308.20935	-961.62653	
2796	27.950	-800.69714	8.88645	-638.72168	769.36981	10.17774	-644.41956	-708.36993	7.27111	496.57245	733.17609	6.79770	505.22812	-14.23790	1308.11475	-961.46191	
2797	27.960	-800.60822	8.77372	-638.82080	769.32227	10.07319	-644.37628	-708.70563	7.65393	496.40121	733.24280	6.85416	505.21912	-14.24088	1308.01184	-961.42310	
2798	27.970	-800.53430	8.90011	-638.82483	769.32648	9.98268	-644.37921	-708.51849	7.52147	496.43835	733.21198	6.81979	505.22238	-14.22638	1307.99097	-961.52142	
2799	27.980	-800.48785	8.96120	-638.82928	769.26343	10.11034	-644.39215	-708.36932	7.40345	496.51215	733.12823	6.73404	505.20752	-14.14786	1308.05493	-961.76959	
2800	27.990	-800.52094	8.98890	-638.75024	769.36139	10.14557	-644.40997	-708.68872	7.99761	496.13144	733.12610	6.70009	505.19928	-14.14270	1308.17017	-962.08575	
2801	28.000	-800.60229	9.05106	-638.67456	769.33807	10.17086	-644.41821	-708.73108	8.03215	496.08371	733.07635	6.71212	505.20197	-14.14279	1308.21509	-962.22729	
2802	28.010	-800.62646	8.97967	-638.74219	769.33441	10.14923	-644.41003	-708.79272	7.94841	496.07840	733.22821	6.79651	505.22592	-14.07804	1308.23206	-962.25696	
2803	28.020	-800.54095	8.88701	-638.77826	769.29095	10.13376	-644.40027	-708.78082	7.87258	496.05746	733.18799	6.80640	505.21375	-14.01907	1308.17395	-962.25537	
2804	28.030	-800.47778	8.98809	-638.82471	769.32355	10.03781	-644.39111	-708.68243	7.87147	496.04565	733.17236	6.75312	505.22333	-14.08127	1308.10132	-962.03271	
2805	28.040	-800.51404	8.97460	-638.77887	769.39423	10.06841	-644.36871	-708.72449	8.01605	496.04373	733.15906	6.72859	505.21780	-14.24138	1308.11340	-961.86023	
